<svg t="1620177237941" class="icon" viewBox="0 0 1024 1024" version="1.1" xmlns="http://www.w3.org/2000/svg" p-id="2099" width="16" height="16"><path d="M939.872 409.6c-7.328 0-7.328 0 0 0h-277.952C793.568 21.952 588.768 0 588.768 0c-73.152 0-95.072 58.528-102.4 73.152 0 190.176-168.224 336.448-168.224 336.448v73.152c29.248 0 73.152-43.872 73.152-43.872 51.2-51.2 160.928-182.848 168.224-351.072 7.328-7.328 14.624-14.624 21.952-14.624s21.952 7.328 36.576 29.248c14.624 29.248 36.576 109.728-21.952 285.248-7.328 21.952-7.328 43.872 7.328 65.824s36.576 29.248 58.528 29.248h263.328c0 29.248-14.624 146.272-95.072 416.928-7.328 14.624-14.624 36.576-21.952 51.2H325.504v73.152h512c36.576 0 73.152-102.4 73.152-102.4 102.4-343.776 102.4-446.176 102.4-446.176-7.328-58.528-58.528-65.824-73.152-65.824z m-614.4 0H47.52C10.944 409.6 10.944 446.176 10.944 446.176l36.576 541.248C47.52 1024 84.096 1024 84.096 1024h241.376V409.6zM252.352 950.848H120.704l-29.248-468.128h160.928v468.128z" p-id="2100"></path></svg>
