<?xml version="1.0" encoding="UTF-8" standalone="no"?>
<!DOCTYPE svg PUBLIC "-//W3C//DTD SVG 1.1//EN"
 "http://www.w3.org/Graphics/SVG/1.1/DTD/svg11.dtd">
<!-- Generated by graphviz version 2.43.0 (0)
 -->
<!-- Title: structs Pages: 1 -->
<svg width="190pt" height="102pt"
 viewBox="0.00 0.00 190.00 102.00" xmlns="http://www.w3.org/2000/svg" xmlns:xlink="http://www.w3.org/1999/xlink">
<g id="graph0" class="graph" transform="scale(1 1) rotate(0) translate(4 98)">
<title>structs</title>
<polygon fill="white" stroke="transparent" points="-4,4 -4,-98 186,-98 186,4 -4,4"/>
<!-- matrix0 -->
<g id="node1" class="node">
<title>matrix0</title>
<polygon fill="#d9e8fb" stroke="transparent" points="9,-68 9,-89 25,-89 25,-68 9,-68"/>
<polygon fill="none" stroke="black" points="9,-68 9,-89 25,-89 25,-68 9,-68"/>
<text text-anchor="start" x="12" y="-74.8" font-family="Times,serif" font-size="14.00">X</text>
<polygon fill="#d9e8fb" stroke="transparent" points="25,-68 25,-89 41,-89 41,-68 25,-68"/>
<polygon fill="none" stroke="black" points="25,-68 25,-89 41,-89 41,-68 25,-68"/>
<text text-anchor="start" x="28" y="-74.8" font-family="Times,serif" font-size="14.00">X</text>
<polygon fill="#d9e8fb" stroke="transparent" points="41,-68 41,-89 57,-89 57,-68 41,-68"/>
<polygon fill="none" stroke="black" points="41,-68 41,-89 57,-89 57,-68 41,-68"/>
<text text-anchor="start" x="44" y="-74.8" font-family="Times,serif" font-size="14.00">X</text>
<polygon fill="#d9e8fb" stroke="transparent" points="57,-68 57,-89 73,-89 73,-68 57,-68"/>
<polygon fill="none" stroke="black" points="57,-68 57,-89 73,-89 73,-68 57,-68"/>
<text text-anchor="start" x="60" y="-74.8" font-family="Times,serif" font-size="14.00">X</text>
<polygon fill="#d9e8fb" stroke="transparent" points="9,-47 9,-68 25,-68 25,-47 9,-47"/>
<polygon fill="none" stroke="black" points="9,-47 9,-68 25,-68 25,-47 9,-47"/>
<text text-anchor="start" x="12" y="-53.8" font-family="Times,serif" font-size="14.00">X</text>
<polygon fill="#ffe6cd" stroke="transparent" points="25,-47 25,-68 41,-68 41,-47 25,-47"/>
<polygon fill="none" stroke="black" points="25,-47 25,-68 41,-68 41,-47 25,-47"/>
<text text-anchor="start" x="28" y="-53.8" font-family="Times,serif" font-size="14.00">O</text>
<polygon fill="#ffe6cd" stroke="transparent" points="41,-47 41,-68 57,-68 57,-47 41,-47"/>
<polygon fill="none" stroke="black" points="41,-47 41,-68 57,-68 57,-47 41,-47"/>
<text text-anchor="start" x="44" y="-53.8" font-family="Times,serif" font-size="14.00">O</text>
<polygon fill="#d9e8fb" stroke="transparent" points="57,-47 57,-68 73,-68 73,-47 57,-47"/>
<polygon fill="none" stroke="black" points="57,-47 57,-68 73,-68 73,-47 57,-47"/>
<text text-anchor="start" x="60" y="-53.8" font-family="Times,serif" font-size="14.00">X</text>
<polygon fill="#d9e8fb" stroke="transparent" points="9,-26 9,-47 25,-47 25,-26 9,-26"/>
<polygon fill="none" stroke="black" points="9,-26 9,-47 25,-47 25,-26 9,-26"/>
<text text-anchor="start" x="12" y="-32.8" font-family="Times,serif" font-size="14.00">X</text>
<polygon fill="#d9e8fb" stroke="transparent" points="25,-26 25,-47 41,-47 41,-26 25,-26"/>
<polygon fill="none" stroke="black" points="25,-26 25,-47 41,-47 41,-26 25,-26"/>
<text text-anchor="start" x="28" y="-32.8" font-family="Times,serif" font-size="14.00">X</text>
<polygon fill="#ffe6cd" stroke="transparent" points="41,-26 41,-47 57,-47 57,-26 41,-26"/>
<polygon fill="none" stroke="black" points="41,-26 41,-47 57,-47 57,-26 41,-26"/>
<text text-anchor="start" x="44" y="-32.8" font-family="Times,serif" font-size="14.00">O</text>
<polygon fill="#d9e8fb" stroke="transparent" points="57,-26 57,-47 73,-47 73,-26 57,-26"/>
<polygon fill="none" stroke="black" points="57,-26 57,-47 73,-47 73,-26 57,-26"/>
<text text-anchor="start" x="60" y="-32.8" font-family="Times,serif" font-size="14.00">X</text>
<polygon fill="#d9e8fb" stroke="transparent" points="9,-5 9,-26 25,-26 25,-5 9,-5"/>
<polygon fill="none" stroke="black" points="9,-5 9,-26 25,-26 25,-5 9,-5"/>
<text text-anchor="start" x="12" y="-11.8" font-family="Times,serif" font-size="14.00">X</text>
<polygon fill="#ffe6cd" stroke="transparent" points="25,-5 25,-26 41,-26 41,-5 25,-5"/>
<polygon fill="none" stroke="black" points="25,-5 25,-26 41,-26 41,-5 25,-5"/>
<text text-anchor="start" x="28" y="-11.8" font-family="Times,serif" font-size="14.00">O</text>
<polygon fill="#d9e8fb" stroke="transparent" points="41,-5 41,-26 57,-26 57,-5 41,-5"/>
<polygon fill="none" stroke="black" points="41,-5 41,-26 57,-26 57,-5 41,-5"/>
<text text-anchor="start" x="44" y="-11.8" font-family="Times,serif" font-size="14.00">X</text>
<polygon fill="#d9e8fb" stroke="transparent" points="57,-5 57,-26 73,-26 73,-5 57,-5"/>
<polygon fill="none" stroke="black" points="57,-5 57,-26 73,-26 73,-5 57,-5"/>
<text text-anchor="start" x="60" y="-11.8" font-family="Times,serif" font-size="14.00">X</text>
<polygon fill="none" stroke="black" points="8,-4 8,-90 74,-90 74,-4 8,-4"/>
</g>
<!-- matrix1 -->
<g id="node2" class="node">
<title>matrix1</title>
<polygon fill="#d9e8fb" stroke="transparent" points="109,-68 109,-89 125,-89 125,-68 109,-68"/>
<polygon fill="none" stroke="black" points="109,-68 109,-89 125,-89 125,-68 109,-68"/>
<text text-anchor="start" x="112" y="-74.8" font-family="Times,serif" font-size="14.00">X</text>
<polygon fill="#d9e8fb" stroke="transparent" points="125,-68 125,-89 141,-89 141,-68 125,-68"/>
<polygon fill="none" stroke="black" points="125,-68 125,-89 141,-89 141,-68 125,-68"/>
<text text-anchor="start" x="128" y="-74.8" font-family="Times,serif" font-size="14.00">X</text>
<polygon fill="#d9e8fb" stroke="transparent" points="141,-68 141,-89 157,-89 157,-68 141,-68"/>
<polygon fill="none" stroke="black" points="141,-68 141,-89 157,-89 157,-68 141,-68"/>
<text text-anchor="start" x="144" y="-74.8" font-family="Times,serif" font-size="14.00">X</text>
<polygon fill="#d9e8fb" stroke="transparent" points="157,-68 157,-89 173,-89 173,-68 157,-68"/>
<polygon fill="none" stroke="black" points="157,-68 157,-89 173,-89 173,-68 157,-68"/>
<text text-anchor="start" x="160" y="-74.8" font-family="Times,serif" font-size="14.00">X</text>
<polygon fill="#d9e8fb" stroke="transparent" points="109,-47 109,-68 125,-68 125,-47 109,-47"/>
<polygon fill="none" stroke="black" points="109,-47 109,-68 125,-68 125,-47 109,-47"/>
<text text-anchor="start" x="112" y="-53.8" font-family="Times,serif" font-size="14.00">X</text>
<polygon fill="#d9e8fb" stroke="transparent" points="125,-47 125,-68 141,-68 141,-47 125,-47"/>
<polygon fill="none" stroke="black" points="125,-47 125,-68 141,-68 141,-47 125,-47"/>
<text text-anchor="start" x="128" y="-53.8" font-family="Times,serif" font-size="14.00">X</text>
<polygon fill="#d9e8fb" stroke="transparent" points="141,-47 141,-68 157,-68 157,-47 141,-47"/>
<polygon fill="none" stroke="black" points="141,-47 141,-68 157,-68 157,-47 141,-47"/>
<text text-anchor="start" x="144" y="-53.8" font-family="Times,serif" font-size="14.00">X</text>
<polygon fill="#d9e8fb" stroke="transparent" points="157,-47 157,-68 173,-68 173,-47 157,-47"/>
<polygon fill="none" stroke="black" points="157,-47 157,-68 173,-68 173,-47 157,-47"/>
<text text-anchor="start" x="160" y="-53.8" font-family="Times,serif" font-size="14.00">X</text>
<polygon fill="#d9e8fb" stroke="transparent" points="109,-26 109,-47 125,-47 125,-26 109,-26"/>
<polygon fill="none" stroke="black" points="109,-26 109,-47 125,-47 125,-26 109,-26"/>
<text text-anchor="start" x="112" y="-32.8" font-family="Times,serif" font-size="14.00">X</text>
<polygon fill="#d9e8fb" stroke="transparent" points="125,-26 125,-47 141,-47 141,-26 125,-26"/>
<polygon fill="none" stroke="black" points="125,-26 125,-47 141,-47 141,-26 125,-26"/>
<text text-anchor="start" x="128" y="-32.8" font-family="Times,serif" font-size="14.00">X</text>
<polygon fill="#d9e8fb" stroke="transparent" points="141,-26 141,-47 157,-47 157,-26 141,-26"/>
<polygon fill="none" stroke="black" points="141,-26 141,-47 157,-47 157,-26 141,-26"/>
<text text-anchor="start" x="144" y="-32.8" font-family="Times,serif" font-size="14.00">X</text>
<polygon fill="#d9e8fb" stroke="transparent" points="157,-26 157,-47 173,-47 173,-26 157,-26"/>
<polygon fill="none" stroke="black" points="157,-26 157,-47 173,-47 173,-26 157,-26"/>
<text text-anchor="start" x="160" y="-32.8" font-family="Times,serif" font-size="14.00">X</text>
<polygon fill="#d9e8fb" stroke="transparent" points="109,-5 109,-26 125,-26 125,-5 109,-5"/>
<polygon fill="none" stroke="black" points="109,-5 109,-26 125,-26 125,-5 109,-5"/>
<text text-anchor="start" x="112" y="-11.8" font-family="Times,serif" font-size="14.00">X</text>
<polygon fill="#ffe6cd" stroke="transparent" points="125,-5 125,-26 141,-26 141,-5 125,-5"/>
<polygon fill="none" stroke="black" points="125,-5 125,-26 141,-26 141,-5 125,-5"/>
<text text-anchor="start" x="128" y="-11.8" font-family="Times,serif" font-size="14.00">O</text>
<polygon fill="#d9e8fb" stroke="transparent" points="141,-5 141,-26 157,-26 157,-5 141,-5"/>
<polygon fill="none" stroke="black" points="141,-5 141,-26 157,-26 157,-5 141,-5"/>
<text text-anchor="start" x="144" y="-11.8" font-family="Times,serif" font-size="14.00">X</text>
<polygon fill="#d9e8fb" stroke="transparent" points="157,-5 157,-26 173,-26 173,-5 157,-5"/>
<polygon fill="none" stroke="black" points="157,-5 157,-26 173,-26 173,-5 157,-5"/>
<text text-anchor="start" x="160" y="-11.8" font-family="Times,serif" font-size="14.00">X</text>
<polygon fill="none" stroke="black" points="108,-4 108,-90 174,-90 174,-4 108,-4"/>
</g>
<!-- matrix0&#45;&gt;matrix1 -->
<g id="edge1" class="edge">
<title>matrix0&#45;&gt;matrix1</title>
<path fill="none" stroke="black" d="M82.02,-47C84.64,-47 87.26,-47 89.88,-47"/>
<polygon fill="black" stroke="black" points="89.99,-50.5 99.99,-47 89.99,-43.5 89.99,-50.5"/>
</g>
</g>
</svg>
