<?xml version="1.0" encoding="UTF-8" standalone="no"?>
<!DOCTYPE svg PUBLIC "-//W3C//DTD SVG 1.1//EN"
 "http://www.w3.org/Graphics/SVG/1.1/DTD/svg11.dtd">
<!-- Generated by graphviz version 2.43.0 (0)
 -->
<!-- Title: %3 Pages: 1 -->
<svg width="332pt" height="67pt"
 viewBox="0.00 0.00 332.00 67.00" xmlns="http://www.w3.org/2000/svg" xmlns:xlink="http://www.w3.org/1999/xlink">
<g id="graph0" class="graph" transform="scale(1 1) rotate(0) translate(4 63)">
<title>%3</title>
<polygon fill="white" stroke="transparent" points="-4,4 -4,-63 328,-63 328,4 -4,4"/>
<!-- 3 -->
<g id="node1" class="node">
<title>3</title>
<ellipse fill="none" stroke="black" cx="27" cy="-18" rx="27" ry="18"/>
<text text-anchor="middle" x="27" y="-14.3" font-family="Times,serif" font-size="14.00">3</text>
</g>
<!-- 2 -->
<g id="node2" class="node">
<title>2</title>
<ellipse fill="none" stroke="black" cx="117" cy="-18" rx="27" ry="18"/>
<text text-anchor="middle" x="117" y="-14.3" font-family="Times,serif" font-size="14.00">2</text>
</g>
<!-- 3&#45;&gt;2 -->
<g id="edge1" class="edge">
<title>3&#45;&gt;2</title>
<path fill="none" stroke="black" d="M54.4,-18C62.39,-18 71.31,-18 79.82,-18"/>
<polygon fill="black" stroke="black" points="79.92,-21.5 89.92,-18 79.92,-14.5 79.92,-21.5"/>
</g>
<!-- 0 -->
<g id="node3" class="node">
<title>0</title>
<ellipse fill="none" stroke="black" cx="207" cy="-41" rx="27" ry="18"/>
<text text-anchor="middle" x="207" y="-37.3" font-family="Times,serif" font-size="14.00">0</text>
</g>
<!-- 2&#45;&gt;0 -->
<g id="edge2" class="edge">
<title>2&#45;&gt;0</title>
<path fill="none" stroke="black" d="M142.51,-24.41C151.57,-26.77 162.01,-29.5 171.78,-32.05"/>
<polygon fill="black" stroke="black" points="171.06,-35.49 181.62,-34.63 172.83,-28.71 171.06,-35.49"/>
</g>
<!-- &#45;4 -->
<g id="node4" class="node">
<title>&#45;4</title>
<ellipse fill="none" stroke="black" cx="297" cy="-18" rx="27" ry="18"/>
<text text-anchor="middle" x="297" y="-14.3" font-family="Times,serif" font-size="14.00">&#45;4</text>
</g>
<!-- 0&#45;&gt;&#45;4 -->
<g id="edge3" class="edge">
<title>0&#45;&gt;&#45;4</title>
<path fill="none" stroke="black" d="M232.51,-34.59C241.57,-32.23 252.01,-29.5 261.78,-26.95"/>
<polygon fill="black" stroke="black" points="262.83,-30.29 271.62,-24.37 261.06,-23.51 262.83,-30.29"/>
</g>
<!-- &#45;4&#45;&gt;2 -->
<g id="edge4" class="edge">
<title>&#45;4&#45;&gt;2</title>
<path fill="none" stroke="black" d="M270.08,-15.95C258.97,-15.17 245.86,-14.38 234,-14 210.01,-13.23 203.99,-13.23 180,-14 171.57,-14.27 162.5,-14.75 153.98,-15.28"/>
<polygon fill="black" stroke="black" points="153.67,-11.8 143.92,-15.95 154.13,-18.78 153.67,-11.8"/>
</g>
</g>
</svg>
